<?xml version="1.0" encoding="utf-8"?>
<!-- Generator: Adobe Illustrator 27.2.0, SVG Export Plug-In . SVG Version: 6.00 Build 0)  -->
<svg version="1.1" xmlns="http://www.w3.org/2000/svg" xmlns:xlink="http://www.w3.org/1999/xlink" x="0px" y="0px"
	 viewBox="0 0 640 512" style="enable-background:new 0 0 640 512;" xml:space="preserve">
<style type="text/css">
	.st0{fill:#CCCCCC;}
	.st1{fill:#D35968;}
	.st2{fill:#FFFFFF;}
	.st3{display:none;}
	.st4{display:inline;}
</style>
<g id="Calque_1">
	<path d="M-660,488V171.3c0-26.2,15.9-49.7,40.2-59.4L-351.9,4.8c7.6-3.1,16.1-3.1,23.8,0l267.9,107.1c24.3,9.7,40.2,33.3,40.2,59.4
		V488c0,13.3-10.7,24-24,24h-48c-13.3,0-24-10.7-24-24V224c0-17.7-14.3-32-32-32h-384c-17.7,0-32,14.3-32,32v264
		c0,13.3-10.7,24-24,24h-48C-649.3,512-660,501.3-660,488z"/>
	<g>
		<path d="M-226.4,271.9c-8.5-24.1-31.2-40.3-56.8-40.3h-113.6c-25.6,0-48.3,16.2-56.8,40.3l-10.4,29.6h42.5l5.7-16.4
			c2.8-8,10.4-13.4,18.9-13.4h113.6c8.5,0,16.1,5.4,18.9,13.4l5.7,16.4h42.5L-226.4,271.9z"/>
		<path d="M-204.3,334.9l-7.8-22.4h-42.5l6.8,19.4h-184.2l6.8-19.4h-42.5l-7.8,22.4c-14.5,6-24.8,20.4-24.8,37.1v90.3v30.1
			c0,11.1,9,20.1,20.1,20.1h20.1c11.1,0,20.1-9,20.1-20.1v-30.1h200.6v30.1c0,11.1,9,20.1,20.1,20.1h20.1c11.1,0,20.1-9,20.1-20.1
			v-30.1V372C-179.5,355.3-189.8,340.9-204.3,334.9z M-440.3,412.1c-11.1,0-20.1-9-20.1-20.1s9-20.1,20.1-20.1s20.1,9,20.1,20.1
			S-429.2,412.1-440.3,412.1z M-239.7,412.1c-11.1,0-20.1-9-20.1-20.1s9-20.1,20.1-20.1s20.1,9,20.1,20.1S-228.6,412.1-239.7,412.1z
			"/>
	</g>
	<path class="st0" d="M0,488V171.3c0-26.2,15.9-49.7,40.2-59.4L308.1,4.8c7.6-3.1,16.1-3.1,23.8,0l267.9,107.1
		c24.3,9.7,40.2,33.3,40.2,59.4V488c0,13.3-10.7,24-24,24h-48c-13.3,0-24-10.7-24-24V224c0-17.7-14.3-32-32-32H128
		c-17.7,0-32,14.3-32,32v264c0,13.3-10.7,24-24,24H24C10.7,512,0,501.3,0,488z"/>
	<g>
		<path class="st0" d="M433.6,271.9c-8.5-24.1-31.2-40.3-56.8-40.3H263.2c-25.6,0-48.3,16.2-56.8,40.3L196,301.5h42.5l5.7-16.4
			c2.8-8,10.4-13.4,18.9-13.4h113.6c8.5,0,16.1,5.4,18.9,13.4l5.7,16.4H444L433.6,271.9z"/>
		<path class="st0" d="M455.7,334.9l-7.8-22.4h-42.5l6.8,19.4H227.9l6.8-19.4h-42.5l-7.8,22.4c-14.5,6-24.8,20.4-24.8,37.1v90.3
			v30.1c0,11.1,9,20.1,20.1,20.1h20.1c11.1,0,20.1-9,20.1-20.1v-30.1h200.6v30.1c0,11.1,9,20.1,20.1,20.1h20.1
			c11.1,0,20.1-9,20.1-20.1v-30.1V372C480.5,355.3,470.2,340.9,455.7,334.9z M219.7,412.1c-11.1,0-20.1-9-20.1-20.1
			s9-20.1,20.1-20.1s20.1,9,20.1,20.1S230.8,412.1,219.7,412.1z M420.3,412.1c-11.1,0-20.1-9-20.1-20.1s9-20.1,20.1-20.1
			s20.1,9,20.1,20.1S431.4,412.1,420.3,412.1z"/>
	</g>
	<path class="st1" d="M660,488V171.3c0-26.2,15.9-49.7,40.2-59.4L968.1,4.8c7.6-3.1,16.1-3.1,23.8,0l267.9,107.1
		c24.3,9.7,40.2,33.3,40.2,59.4V488c0,13.3-10.7,24-24,24h-48c-13.3,0-24-10.7-24-24V224c0-17.7-14.3-32-32-32H788
		c-17.7,0-32,14.3-32,32v264c0,13.3-10.7,24-24,24h-48C670.7,512,660,501.3,660,488z"/>
	<g>
		<path class="st1" d="M1093.6,271.9c-8.5-24.1-31.2-40.3-56.8-40.3H923.2c-25.6,0-48.3,16.2-56.8,40.3L856,301.5h42.5l5.7-16.4
			c2.8-8,10.4-13.4,18.9-13.4h113.6c8.5,0,16.1,5.4,18.9,13.4l5.7,16.4h42.5L1093.6,271.9z"/>
		<path class="st1" d="M1115.7,334.9l-7.8-22.4h-42.5l6.8,19.4H887.9l6.8-19.4h-42.5l-7.8,22.4c-14.5,6-24.8,20.4-24.8,37.1v90.3
			v30.1c0,11.1,9,20.1,20.1,20.1h20.1c11.1,0,20.1-9,20.1-20.1v-30.1h200.6v30.1c0,11.1,9,20.1,20.1,20.1h20.1
			c11.1,0,20.1-9,20.1-20.1v-30.1V372C1140.5,355.3,1130.2,340.9,1115.7,334.9z M879.7,412.1c-11.1,0-20.1-9-20.1-20.1
			s9-20.1,20.1-20.1s20.1,9,20.1,20.1S890.8,412.1,879.7,412.1z M1080.3,412.1c-11.1,0-20.1-9-20.1-20.1s9-20.1,20.1-20.1
			s20.1,9,20.1,20.1S1091.4,412.1,1080.3,412.1z"/>
	</g>
	<path class="st2" d="M1320,488V171.3c0-26.2,15.9-49.7,40.2-59.4L1628.1,4.8c7.6-3.1,16.1-3.1,23.8,0l267.9,107.1
		c24.3,9.7,40.2,33.3,40.2,59.4V488c0,13.3-10.7,24-24,24h-48c-13.3,0-24-10.7-24-24V224c0-17.7-14.3-32-32-32h-384
		c-17.7,0-32,14.3-32,32v264c0,13.3-10.7,24-24,24h-48C1330.7,512,1320,501.3,1320,488z"/>
	<g>
		<path class="st2" d="M1753.6,271.9c-8.5-24.1-31.2-40.3-56.8-40.3h-113.6c-25.6,0-48.3,16.2-56.8,40.3l-10.4,29.6h42.5l5.7-16.4
			c2.8-8,10.4-13.4,18.9-13.4h113.6c8.5,0,16.1,5.4,18.9,13.4l5.7,16.4h42.5L1753.6,271.9z"/>
		<path class="st2" d="M1775.7,334.9l-7.8-22.4h-42.5l6.8,19.4h-184.2l6.8-19.4h-42.5l-7.8,22.4c-14.5,6-24.8,20.4-24.8,37.1v90.3
			v30.1c0,11.1,9,20.1,20.1,20.1h20.1c11.1,0,20.1-9,20.1-20.1v-30.1h200.6v30.1c0,11.1,9,20.1,20.1,20.1h20.1
			c11.1,0,20.1-9,20.1-20.1v-30.1V372C1800.5,355.3,1790.2,340.9,1775.7,334.9z M1539.7,412.1c-11.1,0-20.1-9-20.1-20.1
			s9-20.1,20.1-20.1s20.1,9,20.1,20.1S1550.8,412.1,1539.7,412.1z M1740.3,412.1c-11.1,0-20.1-9-20.1-20.1s9-20.1,20.1-20.1
			s20.1,9,20.1,20.1S1751.4,412.1,1740.3,412.1z"/>
	</g>
</g>
<g id="Calque_4">
	<g>
		<path d="M-532,301.5v-62.2c0-9.8,7.9-17.8,17.8-17.8h348.5c9.8,0,17.8,7.9,17.8,17.8v62.2H-532z"/>
	</g>
	<g>
		<path class="st0" d="M128,301.5v-62.2c0-9.8,7.9-17.8,17.8-17.8h348.5c9.8,0,17.8,7.9,17.8,17.8v62.2H128z"/>
	</g>
	<g>
		<path class="st1" d="M788,301.5v-62.2c0-9.8,7.9-17.8,17.8-17.8h348.5c9.8,0,17.8,7.9,17.8,17.8v62.2H788z"/>
	</g>
	<g>
		<path class="st2" d="M1448,301.5v-62.2c0-9.8,7.9-17.8,17.8-17.8h348.5c9.8,0,17.8,7.9,17.8,17.8v62.2H1448z"/>
	</g>
</g>
<g id="Calque_2">
</g>
<g id="Mode_Isolation" class="st3">
	<path class="st4" d="M-162.5,374.5h-336c-13.3,0-24-10.7-24-24v-56h384v56C-138.5,363.8-149.2,374.5-162.5,374.5z"/>
	<rect x="-522.5" y="198.5" class="st4" width="384" height="64"/>
</g>
</svg>
