<?xml version="1.0" encoding="utf-8"?>
<!-- Generator: Adobe Illustrator 27.8.0, SVG Export Plug-In . SVG Version: 6.00 Build 0)  -->
<svg version="1.1" xmlns="http://www.w3.org/2000/svg" xmlns:xlink="http://www.w3.org/1999/xlink" x="0px" y="0px"
	 viewBox="0 0 512 512" style="enable-background:new 0 0 512 512;" xml:space="preserve">
<style type="text/css">
	.st0{fill:#D45A69;}
</style>
<g id="Calque_1">
	<path class="st0" d="M17.4,428V191.9c0-19.5,11.9-37.1,30-44.3l199.7-79.8c5.7-2.3,12-2.3,17.7,0l199.7,79.8
		c18.1,7.2,30,24.8,30,44.3V428c0,9.9-8,17.9-17.9,17.9h-35.8c-9.9,0-17.9-8-17.9-17.9V231.2c0-13.2-10.7-23.9-23.9-23.9H112.8
		C99.6,207.3,89,218,89,231.2V428c0,9.9-8,17.9-17.9,17.9H35.3C25.4,445.9,17.4,437.9,17.4,428z"/>
	<g>
		<path class="st0" d="M340.7,266.9c-6.3-18-23.3-30.1-42.3-30.1h-84.7c-19.1,0-36,12.1-42.3,30.1l-7.7,22.1h31.7l4.3-12.2
			c2.1-6,7.8-10,14.1-10h84.7c6.4,0,12,4,14.1,10l4.3,12.2h31.7L340.7,266.9z"/>
		<path class="st0" d="M357.1,313.9l-5.8-16.7h-31.7l5.1,14.4H187.3l5.1-14.4h-31.7l-5.8,16.7c-10.8,4.5-18.5,15.2-18.5,27.7v67.3
			v22.4c0,8.3,6.7,15,15,15h15c8.3,0,15-6.7,15-15v-22.4h149.6v22.4c0,8.3,6.7,15,15,15h15c8.3,0,15-6.7,15-15v-22.4v-67.3
			C375.6,329,367.9,318.3,357.1,313.9z M181.2,371.4c-8.3,0-15-6.7-15-15s6.7-15,15-15s15,6.7,15,15S189.4,371.4,181.2,371.4z
			 M330.7,371.4c-8.3,0-15-6.7-15-15s6.7-15,15-15c8.3,0,15,6.7,15,15S339,371.4,330.7,371.4z"/>
	</g>
</g>
<g id="Calque_4">
	<g>
		<path class="st0" d="M112.8,289v-46.4c0-7.3,5.9-13.2,13.2-13.2h259.8c7.3,0,13.2,5.9,13.2,13.2V289H112.8z"/>
	</g>
</g>
</svg>
